HIERARCHY
ROOT pelvis
{
  OFFSET 0 100 0
  CHANNELS 6 Xposition Yposition Zposition Zrotation Xrotation Yrotation
  JOINT pelvis_right_femur
  {
    OFFSET -10.78128 -3.44521 -0.5502486
    CHANNELS 3 Zrotation Xrotation Yrotation
    JOINT right_femur_tibia
    {
      OFFSET -0.8047443 -44.0398 -0.1307829
      CHANNELS 3 Zrotation Xrotation Yrotation
      JOINT right_tibia_foot
      {
        OFFSET 3.006224 -47.83518 -5
        CHANNELS 3 Zrotation Xrotation Yrotation
        End Site
        {
          OFFSET 0 -5 15
        }
      }
    }
  }
  JOINT pelvis_left_femur
  {
    OFFSET 10.78128 -3.44521 -0.5502486
    CHANNELS 3 Zrotation Xrotation Yrotation
    JOINT left_femur_tibia
    {
      OFFSET 0.8047443 -44.0398 -0.1307829
      CHANNELS 3 Zrotation Xrotation Yrotation
      JOINT left_tibia_foot
      {
        OFFSET -4.370144 -48.10324 -4.275266
        CHANNELS 3 Zrotation Xrotation Yrotation
        End Site
        {
          OFFSET 0 -5 15
        }
      }
    }
  }
  JOINT pelvis_spine1
  {
    OFFSET 0 6.468898 -3.129235
    CHANNELS 3 Zrotation Xrotation Yrotation
    JOINT spine1
    {
      OFFSET 0 23.15396 4.99043
      CHANNELS 3 Zrotation Xrotation Yrotation
      JOINT spine2
      {
        OFFSET 0 20.79997 -5.064912
        CHANNELS 3 Zrotation Xrotation Yrotation
        JOINT neck
        {
          OFFSET 0 14.38658 9.616178
          CHANNELS 3 Zrotation Xrotation Yrotation
          End Site
          {
            OFFSET 0 20 0
          }
        }
      }
      JOINT right_manubrium
      {
        OFFSET -5.722621 16.35077 3.967754
        CHANNELS 3 Zrotation Xrotation Yrotation
        JOINT right_clavicle
        {
          OFFSET -13.16364 1.694482 -4.693211
          CHANNELS 3 Zrotation Xrotation Yrotation
          JOINT right_humerus
          {
            OFFSET -28.5034 -0.3100689 -2.792744
            CHANNELS 3 Zrotation Xrotation Yrotation
            JOINT right_radius
            {
              OFFSET -25.15693 0.02248979 -1.271978
              CHANNELS 3 Zrotation Xrotation Yrotation
              End Site
              {
                OFFSET -15 0 0
              }
            }
          }
        }
      }
      JOINT left_manubrium
      {
        OFFSET 5.722621 16.35077 3.967754
        CHANNELS 3 Zrotation Xrotation Yrotation
        JOINT left_clavicle
        {
          OFFSET 13.16364 1.694482 -4.693211
          CHANNELS 3 Zrotation Xrotation Yrotation
          JOINT left_humerus
          {
            OFFSET 29.39168 -1.063119 -2.237045
            CHANNELS 3 Zrotation Xrotation Yrotation
            JOINT left_radius
            {
              OFFSET 24.59957 -0.9528479 0.9047498
              CHANNELS 3 Zrotation Xrotation Yrotation
              End Site
              {
                OFFSET 15 -0 -0
              }
            }
          }
        }
      }
    }
  }
}
MOTION
Frames: 17
Frame Time: 0.0416666666667
66.66988 98.89143 268.4714 5.518236 -8.182491 15.89396 -1.523496 8.367606 5.05065 -0 35.00815 -0 5.209745 -9.610638 -3.888389 -5.398025 -6.939139 -8.798736 -0 22.44682 -0 -6.703021 -11.54138 17.00814 -2.548155 -0.8079452 6.707815 -1.478941 8.744373 -3.690294 2.383325 23.01298 5.646528 1.373114 -14.88475 8.429488 0.7079042 -17.87327 9.807123 85.77405 21.65129 -12.17469 -0 0 20.45154 -24.19285 13.45413 11.78497 4.725545 -14.67618 -4.041399 -89.6586 25.34706 18.09404 0 0 -12.484 -3.190907 6.861118 16.38522
69.14391 99.03302 274.1857 5.634469 -8.192935 17.31092 -1.484101 4.287863 4.42628 -0 35.69559 -0 4.598559 -9.397784 -4.683004 -5.688578 -3.031327 -9.169498 -0 21.44648 -0 -6.602038 -12.60624 16.49364 -2.624304 -0.6016834 5.891992 -1.285074 8.555324 -4.162561 2.403144 23.24693 5.668991 1.21165 -14.7805 8.64892 0.6903155 -17.09061 9.561409 86.72146 21.86344 -13.2932 -0 0 18.95932 -23.46029 13.38047 11.28375 4.79683 -15.26715 -4.206217 -88.21133 25.69553 15.58944 0 0 -13.65186 -2.647248 7.255141 15.70535
71.56928 99.13425 279.7494 5.736805 -8.16725 18.80424 -1.400472 0.1514105 3.850197 -0 35.4684 -0 3.865504 -9.293484 -5.471712 -5.86392 0.8914721 -9.456153 -0 20.84667 -0 -6.544454 -13.62769 15.99045 -2.674934 -0.3856835 5.081221 -1.055909 8.370908 -4.644077 2.43574 23.47543 5.660632 1.069435 -14.69909 8.830607 0.6601789 -16.26628 9.334477 87.70006 22.10313 -14.50418 -0 0 17.31881 -22.64811 13.29633 10.71231 4.903389 -15.95184 -4.348955 -86.72487 25.97307 12.9276 0 0 -15.00092 -2.021438 7.697599 14.90189
73.9432 99.17446 285.209 5.819722 -8.093621 20.31836 -1.275943 -3.747491 3.357831 -0 34.32909 -0 3.034146 -9.299586 -6.211528 -5.930099 4.615948 -9.664789 -0 20.7247 -0 -6.537907 -14.54788 15.52368 -2.702981 -0.1871628 4.329017 -0.8045779 8.183917 -5.098421 2.490823 23.68284 5.60966 0.955155 -14.65774 8.963348 0.6074198 -15.43603 9.126694 88.65212 22.34519 -15.72789 -0 0 15.59792 -21.77812 13.18848 10.08339 5.039613 -16.6749 -4.447498 -85.29508 26.17268 10.26916 0 0 -16.42864 -1.338344 8.175535 14.00841
76.27319 99.14212 290.6246 5.877237 -7.973866 21.79499 -1.105717 -7.192916 2.970917 -0 32.36216 -0 2.128034 -9.410033 -6.872998 -5.898631 7.979586 -9.80431 -0 21.11978 -0 -6.580868 -15.32246 15.11602 -2.711543 -0.02263936 3.671466 -0.5428542 7.992845 -5.499709 2.57261 23.86111 5.511132 0.8733699 -14.66569 9.041615 0.5283692 -14.63186 8.939122 89.53265 22.57479 -16.89736 -0 0 13.85818 -20.87359 13.04836 9.414721 5.19757 -17.39 -4.489431 -83.99706 26.30075 7.747883 0 0 -17.84185 -0.6222483 8.675764 13.05926
78.57339 99.03595 296.0536 5.907543 -7.826996 23.18003 -0.8808838 -10.02352 2.700948 -0 29.75343 -0 1.17186 -9.612643 -7.436377 -5.784759 10.84352 -9.883789 -0 22.04593 -0 -6.661281 -15.91306 14.79606 -2.702241 0.1044118 3.129623 -0.2825038 7.804018 -5.830011 2.678919 24.01174 5.367439 0.8245081 -14.72377 9.065133 0.4267939 -13.88797 8.774478 90.30529 22.78598 -17.94851 -0 0 12.16338 -19.96218 12.87159 8.732775 5.364202 -18.05475 -4.472347 -82.89518 26.37282 5.485279 0 0 -19.14145 0.09945312 9.184104 12.09446
80.86054 98.86802 301.5362 5.91725 -7.689407 24.42874 -0.5909826 -12.08863 2.553427 -0 26.79752 -0 0.1932739 -9.890964 -7.88473 -5.60632 13.05472 -9.910187 -0 23.51405 -0 -6.756621 -16.27595 14.60687 -2.674144 0.2026587 2.715981 -0.03705395 7.632427 -6.074363 2.801668 24.14594 5.187196 0.8058759 -14.82604 9.037253 0.3136187 -13.24758 8.6377 90.93419 22.9792 -18.80654 -0 0 10.58976 -19.07879 12.65673 8.075496 5.518829 -18.62269 -4.402001 -82.05816 26.4109 3.61446 0 0 -20.20299 0.7916786 9.684923 11.16548
83.14997 98.66663 307.0854 5.92128 -7.607351 25.50803 -0.2276475 -13.24169 2.527934 -0 23.85701 -0 -0.7782405 -10.22666 -8.20183 -5.382125 14.44799 -9.887212 -0 25.53446 -0 -6.838249 -16.36338 14.60168 -2.624246 0.2888167 2.437788 0.1788418 7.498742 -6.219486 2.929025 24.2814 4.982929 0.8128691 -14.96231 8.963504 0.2041431 -12.76021 8.534918 91.38315 23.15901 -19.38884 -0 0 9.221965 -18.26281 12.405 7.488206 5.635359 -19.04462 -4.289645 -81.55756 26.44023 2.276449 0 0 -20.8846 1.413589 10.16287 10.33167
85.45237 98.4747 312.6881 5.936304 -7.620641 26.39556 0.2089123 -13.38273 2.613665 -0 21.26145 -0 -1.716392 -10.60247 -8.376216 -5.128726 14.89795 -9.816428 -0 28.08945 -0 -6.881381 -16.14162 14.82385 -2.549712 0.380129 2.295937 0.3528921 7.421535 -6.257153 3.049255 24.43493 4.767677 0.8402898 -15.12176 8.850612 0.1122552 -12.4673 8.470785 91.62498 23.33095 -19.62837 -0 0 8.132178 -17.54913 12.12038 7.011761 5.690755 -19.28194 -4.14823 -81.44624 26.48186 1.581258 0 0 -21.06932 1.929278 10.60643 9.644548
87.77273 98.342 318.3137 5.972242 -7.748108 27.07759 0.70398 -12.49899 2.784748 -0 19.2195 -0 -2.602361 -11.00331 -8.404384 -4.85703 14.36587 -9.700682 -0 31.08975 -0 -6.873568 -15.60921 15.28768 -2.450158 0.4876985 2.28332 0.4777846 7.409911 -6.186995 3.153556 24.61555 4.552901 0.8834167 -15.29625 8.706172 0.04492774 -12.39013 8.446334 91.64987 23.49774 -19.49341 -0 0 7.364124 -16.96273 11.8088 6.674555 5.67368 -19.31857 -3.988824 -81.74075 26.5435 1.574169 0 0 -20.70234 2.317972 11.00965 9.133521
90.11162 98.31237 323.9244 6.026783 -7.981132 27.54814 1.225956 -10.67139 2.997874 -0 17.79494 -0 -3.424999 -11.41426 -8.288352 -4.570493 12.90558 -9.548352 -0 34.32224 -0 -6.815384 -14.80537 15.97249 -2.328689 0.613712 2.384892 0.5506222 7.46017 -6.015603 3.236048 24.82119 4.349375 0.9385092 -15.48224 8.539217 -0.0009828334 -12.5294 8.458446 91.46518 23.65666 -18.98782 -0 0 6.93683 -16.52358 11.47625 6.496265 5.588872 -19.16305 -3.818919 -82.41995 26.61446 2.233064 0 0 -19.79694 2.576876 11.37092 8.802495
92.46865 98.40837 329.4855 6.083597 -8.282118 27.81009 1.728058 -8.062386 3.193006 -0 16.92158 -0 -4.178735 -11.81731 -8.03056 -4.265394 10.64682 -9.376201 -0 37.40143 -0 -6.715047 -13.81196 16.82517 -2.191986 0.7512324 2.578547 0.5708977 7.555301 -5.753966 3.292184 25.03792 4.169577 1.0029 -15.6816 8.36124 -0.04030127 -12.87124 8.499974 91.09065 23.7988 -18.14097 -0 0 6.858267 -16.25598 11.12704 6.497191 5.458269 -18.84488 -3.642547 -83.43018 26.66649 3.481859 0 0 -18.42287 2.719358 11.69066 8.633147
94.84647 98.61833 334.9722 6.115996 -8.590586 27.87712 2.157701 -4.890997 3.302722 -0 16.44044 -0 -4.861714 -12.19045 -7.631592 -3.934102 7.769946 -9.207612 -0 39.79574 -0 -6.581333 -12.74332 17.7702 -2.049331 0.8862285 2.837356 0.5393306 7.66814 -5.415384 3.317788 25.24258 4.028143 1.074871 -15.9007 8.185899 -0.09735937 -13.39298 8.560538 90.55387 23.91061 -16.99819 -0 0 7.132863 -16.19076 10.76304 6.701191 5.317131 -18.40799 -3.461527 -84.69291 26.66111 5.207716 0 0 -16.68791 2.770598 11.97015 8.591313
97.25328 98.89413 340.3733 6.097712 -8.842114 27.77456 2.473825 -1.388124 3.272366 -0 16.16733 -0 -5.474974 -12.50974 -7.093394 -3.571447 4.470883 -9.065138 -0 40.98719 -0 -6.418829 -11.71614 18.72938 -1.910302 1.002636 3.134329 0.4582682 7.770329 -5.014353 3.309832 25.41068 3.9384 1.153438 -16.1468 8.026199 -0.1973885 -14.0671 8.628806 89.88749 23.97783 -15.61406 -0 0 7.755564 -16.35367 10.38411 7.125968 5.202384 -17.89999 -3.277463 -86.11956 26.56215 7.283103 0 0 -14.71204 2.760281 12.21126 8.637043
99.70261 99.16276 345.6897 6.01457 -8.989686 27.53773 2.658858 2.243153 3.076874 -0 15.96789 -0 -6.022322 -12.7461 -6.424329 -3.181367 0.9352304 -8.964095 -0 40.65967 -0 -6.227546 -10.81762 19.6401 -1.782924 1.087364 3.44665 0.3325433 7.842786 -4.566667 3.268016 25.52496 3.908148 1.238468 -16.42421 7.891385 -0.356345 -14.86247 8.695257 89.1294 23.98959 -14.05071 -0 0 8.699128 -16.7502 9.989075 7.769231 5.139827 -17.36289 -3.093944 -87.62651 26.34632 9.584405 0 0 -12.60533 2.71629 12.41687 8.733456
102.2109 99.34656 350.9313 5.869823 -9.01366 27.20888 2.715573 5.82853 2.723409 -0 15.80852 -0 -6.510865 -12.84794 -5.641641 -2.782711 -2.652932 -8.913933 -0 38.78623 -0 -6.004969 -10.09531 20.45878 -1.674269 1.131221 3.755559 0.1698155 7.882058 -4.091254 3.195836 25.57903 3.9386 1.331566 -16.73284 7.786283 -0.5754754 -15.74158 8.753755 88.32746 23.94068 -12.38485 -0 0 9.902022 -17.35848 9.577318 8.600514 5.138481 -16.8324 -2.918929 -89.13774 26.00646 11.99343 0 0 -10.46587 2.664746 12.59111 8.847714
104.7944 99.38624 356.113 5.684017 -8.922262 26.83428 2.655422 9.192945 2.246721 -0 15.78414 -0 -6.952716 -12.71442 -4.771621 -2.415386 -6.075981 -8.925718 -0 35.63343 -0 -5.747762 -9.56433 21.15299 -1.592813 1.126572 4.042931 -0.01946745 7.903077 -3.613214 3.101081 25.57687 4.02586 1.437504 -17.06873 7.712581 -0.8398765 -16.65483 8.802149 87.54714 23.8328 -10.72114 -0 0 11.2574 -18.1287 9.151259 9.557732 5.190854 -16.34392 -2.767265 -90.57647 25.55085 14.38514 0 0 -8.393208 2.635063 12.73976 8.945712
